<svg xmlns="http://www.w3.org/2000/svg" viewBox="0 0 87 18.2"><path d="M85.9 14.6v-.3h.2c.1 0 .2 0 .2.1s-.1.2-.2.2h-.2zm.6-.1c0-.2-.2-.3-.4-.3h-.3v1h.2v-.4h.1l.2.4h.2l-.3-.4c.2-.1.3-.2.3-.3zm-.4 1c-.4 0-.8-.3-.8-.8 0-.4.4-.8.8-.8s.8.4.8.8c-.1.4-.4.8-.8.8zm0-1.7c.5 0 .9.4.9.9s-.4.9-.9.9-.9-.4-.9-.9.4-.9.9-.9zM71.2 7.7c3-.1 3.5 2 3.4 3.2v4.7h-2v-.9c-.5.7-1.4 1.1-2.2 1.1h-.2c-1.5.1-2.7-1.1-2.8-2.5 0-2.3 2.9-2.6 5.1-2.6v-.1c0-.9-.7-1.3-1.5-1.3s-1.5.3-2.1.8L67.8 9c.9-.8 2.1-1.3 3.4-1.3zm1.4 4.7l-.2-.1c-1.9 0-2.8.5-2.8 1.2s.8.8 1.2.8h.3c.9-.1 1.5-.9 1.5-1.9zM56.1 7.7h.6c2.2.1 3.8 2 3.7 4.1-.1 2.2-1.8 4-4 4-2.3.1-4.3-1.7-4.4-4v-.3c0-2.2 1.9-3.9 4.1-3.8zm0 6.3c1.2-.1 2.1-1.1 2-2.2v-.4c-.2-1.2-1.3-2.1-2.5-1.9-1.3.1-2.2 1.3-2 2.5s1.3 2.2 2.5 2zM47 7.7c.1 0 .1 0 0 0 2.2.1 3.8 1.9 3.7 4v.2c0 2.2-1.8 3.9-3.9 3.9-1 0-1.9-.5-2.4-1.3v1.1h-2V3.5h2.2v5.2c.6-.6 1.5-1 2.4-1zm-.4 6.3c1.2-.1 2.1-1.1 2.1-2.3v-.1c0-1.2-1-2.1-2.1-2.1-1.2.1-2.2 1.1-2.1 2.3 0 1.2.9 2.2 2.1 2.2zm-8-4.9c.4-.8 1.2-1.4 2.1-1.5.2 0 .4.1.6.1v2c-.2-.1-.5-.1-.7-.1h-.1c-1.1 0-1.9.8-2 1.9v4.1h-2.1V7.9h2.1v1.2h.1zM23.8 5.7l.1 2.2h1.9v1.7h-1.9V13c0 .7.3 1.1.9 1.1.3 0 .6-.1.9-.2v1.7c-.5.1-.9.2-1.4.2-2.3 0-2.6-1.6-2.6-2.8V9.6h-1.3V7.9h1.3V5.7h2.1zm8.6 6.4l.1-4.2h2v7.8h-2v-1.2c-.5.8-1.4 1.3-2.3 1.4-2.1 0-2.9-1.6-2.9-3.2V7.8h2.1v4.3c0 1.3.4 1.9 1.3 1.9h.1c1-.1 1.7-.9 1.6-1.9zm48.6-.6l3.2 4.1h-2.6L79.7 13l-2 2.6h-2.5l3.2-4.1-2.8-3.6h2.6l1.5 2.2 1.5-2.2h2.5L81 11.5zM64.5 5.7l.1 2.2h1.9v1.7h-1.9V13c0 .7.3 1.1.9 1.1.3 0 .6-.1.9-.2v1.7c-.5.1-.9.2-1.4.2-2.3 0-2.6-1.6-2.6-2.8V9.6h-1.3V7.9h1.3V5.7h2.1z"/><path d="M9.1 0c5 0 9.1 4.1 9.1 9.1s-4.1 9.1-9.1 9.1S0 14.1 0 9.1 4.1 0 9.1 0" fill="#d52b1e"/><path d="M7.1 12.4c-1-.8-2-1.5-3-2.4-.4.8-.7 1.6-.9 2.4 1.6 1.3 3.2 2.5 4.9 3.6 1.5-3.9 4.1-7.4 7.4-10-.3-.8-.8-1.4-1.4-2-3 2.3-5.3 5.2-7 8.4" fill="#fff"/></svg>