<svg xmlns="http://www.w3.org/2000/svg" viewBox="0 0 56.1 18"><path d="M55.5 15.4c0-.2-.2-.3-.4-.3h-.4v1h.3v-.4h.1l.3.4h.2l-.3-.4c.1 0 .2-.1.2-.3zm-.5.2v-.3h.2c.1 0 .2 0 .2.2 0 .1-.1.2-.2.2l-.2-.1zm.2-.8c-.4 0-.9.4-.9.9s.4.9.9.9.9-.4.9-.9c-.1-.6-.5-.9-.9-.9zm0 1.6c-.4 0-.7-.4-.7-.7 0-.5.4-.7.7-.7.5 0 .7.4.7.7s-.4.7-.7.7zm-19.6.1h2.2V8.7h-2.2v7.8zm17.7-6.1V8.7h-1.9V6.6h-2.1v2.2H48v1.7h1.4v3.4c0 1.2.3 2.8 2.6 2.8.5 0 1-.1 1.3-.2l-.1-1.7c-.2.1-.5.2-.9.2-.6 0-.8-.4-.8-1.1v-3.4l1.8-.1zM30.8 8.6c-1.1 0-1.9.5-2.4 1.4-.4-.6-1.2-1.4-2.4-1.4-1.1 0-2 .8-2.3 1.3V8.7h-2.1v7.7h2.2v-4.2c0-.9.5-1.9 1.5-1.9 1.2 0 1.3 1.1 1.3 1.4v4.7h2.2v-4.2c0-1 .5-1.9 1.6-1.9 1 0 1.3.9 1.3 1.9v4.2h2.2v-4.8c-.2-1.3-1-3-3.1-3zm13.2 0c-1.1 0-2 .8-2.3 1.3V8.7h-2.1v7.7h2.2v-4.2c0-.9.5-1.9 1.6-1.9s1.3.9 1.3 1.9v4.2h2.2v-4.8c0-1.3-.7-3-2.9-3z"/><circle cx="9" cy="9" r="9" fill="#00a6a4"/><path d="M9 2.5c-.6.6-4.7 4.8-4.7 8 0 2.3 1.9 3.1 4.7 5 2.8-1.9 4.7-2.7 4.7-5 0-3.2-4.1-7.4-4.7-8zm-.1 11.4c-.2-.1-.3-.2-.4-.3-2.3-1.4-2.8-2-2.8-3.1 0-1.8 1.7-4.3 3.2-6v9.4z" fill="#fff"/></svg>