<svg width="114" height="114" viewBox="0 0 114 114" fill="none" xmlns="http://www.w3.org/2000/svg">
<g filter="url(#filter0_b)">
<rect y="56.5686" width="80" height="80" rx="8" transform="rotate(-45 0 56.5686)" fill="#F2F7F2"/>
</g>
<g clip-path="url(#clip0)">
<path d="M89.6138 55.2581V89.8465C89.6138 91.5033 88.2707 92.8465 86.6138 92.8465H65.9721H35.5755L25.4434 82.5951V55.2581H89.6138Z" fill="#000066"/>
<path fill-rule="evenodd" clip-rule="evenodd" d="M35.5098 34.6684C35.5098 35.6121 36.2658 36.377 37.1985 36.377C38.1311 36.377 38.8872 35.6121 38.8872 34.6684V27.8342C38.8872 26.8906 39.6432 26.1256 40.5759 26.1256H69.2831H69.8582H76.0379C76.9705 26.1256 77.7266 26.8906 77.7266 27.8342V34.6684C77.7266 35.6121 78.4826 36.377 79.4153 36.377C80.3479 36.377 81.104 35.6121 81.104 34.6684V27.8342C81.104 25.0033 78.8358 22.7085 76.0379 22.7085H71.3537H69.2831H40.5759C37.7779 22.7085 35.5098 25.0033 35.5098 27.8342V34.6684Z" fill="#000066"/>
<path d="M35.5101 85.9257V92.7599H28.7553C26.8923 92.7543 25.3835 91.2277 25.3779 89.3428V82.5085H32.1327C33.9957 82.5142 35.5045 84.0408 35.5101 85.9257Z" fill="#9999C2"/>
<path d="M79.3961 85.9655V92.7997H86.1509C88.0139 92.7941 89.5228 91.2675 89.5283 89.3826V82.5483H82.7735C80.9106 82.554 79.4017 84.0806 79.3961 85.9655Z" fill="#9999C2"/>
<path d="M92.9253 44.9198V56.8798C92.9197 58.7647 91.4108 60.2913 89.5479 60.2969H67.5948V58.5884C67.5892 56.7035 66.0804 55.1769 64.2174 55.1712H50.7078C48.8449 55.1769 47.336 56.7035 47.3305 58.5884V60.2969H25.3774C23.5144 60.2913 22.0056 58.7647 22 56.8798V44.9198L33.8209 34.6685H81.1044L92.9253 44.9198Z" fill="#9999C2"/>
<path d="M92.9254 41.5027V44.9198H84.4819C82.6189 44.9142 81.1101 43.3876 81.1045 41.5027V34.6685H86.1706C89.9012 34.6685 92.9254 37.7283 92.9254 41.5027Z" fill="#9999C2"/>
<path d="M33.8209 34.6685V41.5027C33.8153 43.3876 32.3065 44.9142 30.4435 44.9198H22V41.5027C22 37.7283 25.0242 34.6685 28.7548 34.6685H33.8209Z" fill="#9999C2"/>
<path d="M64.217 55.1714H50.7075C48.8422 55.1714 47.3301 56.7013 47.3301 58.5885V62.0056C47.3301 63.8929 48.8422 65.4228 50.7075 65.4228H64.217C66.0823 65.4228 67.5944 63.8929 67.5944 62.0056V58.5885C67.5944 56.7013 66.0823 55.1714 64.217 55.1714Z" fill="#9999C2"/>
</g>
<defs>
<filter id="filter0_b" x="-56" y="-56" width="225.137" height="225.137" filterUnits="userSpaceOnUse" color-interpolation-filters="sRGB">
<feFlood flood-opacity="0" result="BackgroundImageFix"/>
<feGaussianBlur in="BackgroundImage" stdDeviation="28"/>
<feComposite in2="SourceAlpha" operator="in" result="effect1_backgroundBlur"/>
<feBlend mode="normal" in="SourceGraphic" in2="effect1_backgroundBlur" result="shape"/>
</filter>
<clipPath id="clip0">
<rect width="70.9714" height="72" fill="white" transform="translate(22 21)"/>
</clipPath>
</defs>
</svg>
