<svg width="83" height="73" viewBox="0 0 83 73" fill="none" xmlns="http://www.w3.org/2000/svg">
<path d="M41.5 14.6152H30.7635C31.3049 12.8742 31.6113 11.1639 31.6113 9.75195C31.6113 4.38937 27.2473 0.0253906 21.8848 0.0253906C16.5222 0.0253906 12.1582 4.38937 12.1582 9.75195C12.1582 11.1639 12.4646 12.8742 13.006 14.6152H2.43164C1.08938 14.6152 0 15.7046 0 17.0469V31.2087C0 32.0501 0.436074 32.8331 1.1526 33.2756C1.8675 33.7198 2.76234 33.7604 3.51615 33.3843C5.58143 32.3549 8.13465 31.6367 9.72656 31.6367C12.4079 31.6367 14.5898 33.8187 14.5898 36.5C14.5898 39.1813 12.4079 41.3633 9.72656 41.3633C8.13465 41.3633 5.58143 40.6451 3.51615 39.6157C2.76234 39.2396 1.8675 39.2802 1.1526 39.7244C0.436074 40.1669 0 40.9499 0 41.7913V55.9531C0 57.2954 1.08938 58.3848 2.43164 58.3848H13.006C12.4646 60.1258 12.1582 61.8361 12.1582 63.248C12.1582 68.6106 16.5222 72.9746 21.8848 72.9746C27.2473 72.9746 31.6113 68.6106 31.6113 63.248C31.6113 61.8361 31.3049 60.1258 30.7635 58.3848H41.5L45.7148 45.356V27.644L41.5 14.6152Z" fill="#9999C2"/>
<path d="M73.1113 31.6367C74.5363 31.6367 77.1819 32.2365 79.4838 33.3843C80.2377 33.7604 81.1325 33.7198 81.8474 33.2756C82.5639 32.8331 83 32.0501 83 31.2087V17.0469C83 15.7046 81.9106 14.6152 80.5684 14.6152H69.8319C70.3733 12.8742 70.6797 11.1639 70.6797 9.75195C70.6797 4.38937 66.3157 0.0253906 60.9531 0.0253906C55.5905 0.0253906 51.2266 4.38937 51.2266 9.75195C51.2266 11.1639 51.533 12.8742 52.0744 14.6152H41.5V27.644C39.7054 27.096 37.906 26.7734 36.4746 26.7734C31.112 26.7734 26.748 31.1374 26.748 36.5C26.748 41.8626 31.112 46.2266 36.4746 46.2266C37.906 46.2266 39.7054 45.904 41.5 45.356V58.3848L52.0744 58.3831C51.533 60.1242 51.2266 61.8361 51.2266 63.248C51.2266 68.6106 55.5905 72.9746 60.9531 72.9746C66.3157 72.9746 70.6797 68.6106 70.6797 63.248C70.6797 61.8361 70.3733 60.1258 69.8319 58.3848H80.5684C81.9106 58.3848 83 57.2954 83 55.9531V41.7913C83 40.9499 82.5639 40.1669 81.8474 39.7244C81.1309 39.2802 80.2377 39.2396 79.4838 39.6157C77.1819 40.7635 74.5363 41.3633 73.1113 41.3633C70.43 41.3633 68.248 39.1813 68.248 36.5C68.248 33.8187 70.43 31.6367 73.1113 31.6367Z" fill="#000066"/>
</svg>
