<svg width="104" height="104" viewBox="0 0 104 104" fill="none" xmlns="http://www.w3.org/2000/svg">
<path d="M52 9.75H55.25V39H52V9.75Z" fill="#000066"/>
<path d="M50.375 39H56.875V47.125H50.375V39Z" fill="#000066"/>
<path d="M98.5392 85.5392C98.9143 85.9143 99.125 86.423 99.125 86.9534V92.25C99.125 93.3546 98.2296 94.25 97.125 94.25H29.625C28.5204 94.25 27.625 93.3546 27.625 92.25V69.5107C27.625 69.0132 27.8105 68.5335 28.1451 68.1653L45.3639 49.2253C46.4121 48.0715 47.6864 47.1456 49.1075 46.5051C50.5287 45.8646 52.0663 45.5232 53.625 45.502C53.6778 45.5 53.7327 45.5 53.7855 45.5C54.8301 45.4998 55.8698 45.644 56.875 45.9286C57.3052 46.0485 57.7278 46.1943 58.1405 46.3653C59.5213 46.9379 60.7761 47.7764 61.8333 48.8333L98.5392 85.5392Z" fill="#000066"/>
<path d="M52 11.1428L39 19.5L52 27.8571V11.1428Z" fill="#000066"/>
<path d="M6.23597 90.8707C5.02329 92.144 5.92586 94.25 7.68425 94.25H57.8926C58.9971 94.25 59.8926 93.3546 59.8926 92.25V78.7139C59.8926 78.2522 59.7328 77.8048 59.4405 77.4475L48.5096 64.0875C47.4963 62.849 46.2205 61.851 44.7744 61.1657C43.3283 60.4805 41.7481 60.125 40.1478 60.125C38.6847 60.125 37.2368 60.4222 35.892 60.9985C34.5471 61.5749 33.3334 62.4184 32.3243 63.4779L6.23597 90.8707Z" fill="#000066"/>
<path d="M11.375 30.875V29.25C11.375 27.0951 12.231 25.0285 13.7548 23.5048C15.2785 21.981 17.3451 21.125 19.5 21.125C20.7929 21.125 22.0329 21.6386 22.9471 22.5529C23.8614 23.4671 24.375 24.7071 24.375 26C26.0989 26 27.7522 26.6848 28.9712 27.9038C30.1902 29.1228 30.875 30.7761 30.875 32.5H32.5C34.6549 32.5 36.7215 33.356 38.2452 34.8798C39.2929 35.9275 40.025 37.2318 40.3801 38.6451C40.6493 39.7164 39.7296 40.625 38.625 40.625H6.875C5.77043 40.625 4.875 39.7296 4.875 38.625V37.375C4.875 35.6511 5.55982 33.9978 6.77881 32.7788C7.99779 31.5598 9.65109 30.875 11.375 30.875Z" fill="#9999C2"/>
<path d="M69.875 21.125L69.8783 19.4805C69.8826 17.3293 70.7402 15.2677 72.2628 13.7481C73.7855 12.2284 75.8488 11.375 78 11.375H78.0029C79.2952 11.3754 80.5345 11.889 81.4481 12.8029C82.3618 13.7168 82.875 14.9562 82.875 16.2485C84.5989 16.2485 86.2522 16.9348 87.4712 18.1538C88.6902 19.3728 89.375 21.0261 89.375 22.75H91C92.067 22.75 93.1235 22.9602 94.1093 23.3685C95.0951 23.7768 95.9908 24.3753 96.7452 25.1298C97.4997 25.8842 98.0982 26.7799 98.5065 27.7657C98.6588 28.1334 98.7835 28.5109 98.8801 28.8951C99.1492 29.9664 98.2296 30.875 97.125 30.875H65.375C64.2704 30.875 63.375 29.9796 63.375 28.875V27.625C63.375 25.9011 64.0598 24.2478 65.2788 23.0288C66.4978 21.8098 68.1511 21.125 69.875 21.125Z" fill="#9999C2"/>
<path d="M74.75 85.3125V94.25H71.5V85.3125C71.4995 84.6662 71.2425 84.0465 70.7855 83.5895C70.3285 83.1325 69.7088 82.8755 69.0625 82.875C67.5546 82.8733 66.1089 82.2736 65.0427 81.2073C63.9764 80.1411 63.3767 78.6954 63.375 77.1875C63.3728 75.2488 62.6016 73.3901 61.2308 72.0192C59.8599 70.6484 58.0012 69.8772 56.0625 69.875H52C50.2761 69.875 48.6228 69.1902 47.4038 67.9712C46.1848 66.7522 45.5 65.0989 45.5 63.375C45.5 61.6511 46.1848 59.9978 47.4038 58.7788C48.6228 57.5598 50.2761 56.875 52 56.875C52.4308 56.8744 52.8438 56.703 53.1484 56.3984C53.453 56.0938 53.6244 55.6808 53.625 55.25V45.502C53.6778 45.5 53.7327 45.5 53.7855 45.5C54.8301 45.4998 55.8698 45.644 56.875 45.9286V55.25C56.8733 56.5424 56.3591 57.7814 55.4453 58.6953C54.5314 59.6091 53.2924 60.1233 52 60.125C51.138 60.125 50.3114 60.4674 49.7019 61.0769C49.0924 61.6864 48.75 62.513 48.75 63.375C48.75 64.237 49.0924 65.0636 49.7019 65.6731C50.3114 66.2826 51.138 66.625 52 66.625H56.0625C58.8628 66.6284 61.5475 67.7423 63.5276 69.7224C65.5077 71.7025 66.6216 74.3872 66.625 77.1875C66.6255 77.8338 66.8825 78.4535 67.3395 78.9105C67.7965 79.3675 68.4162 79.6245 69.0625 79.625C70.5704 79.6267 72.0161 80.2264 73.0823 81.2927C74.1486 82.3589 74.7483 83.8046 74.75 85.3125Z" fill="#9999C2"/>
</svg>
