<svg width="104" height="104" viewBox="0 0 104 104" fill="none" xmlns="http://www.w3.org/2000/svg">
<path d="M84.6452 86.7451C85.098 89.2032 83.2108 91.4698 80.7114 91.4698H23.2884C20.7891 91.4698 18.9019 89.2033 19.3546 86.7453L22.3231 70.6289C23.603 61.6105 31.4034 54.7042 40.4219 54.7042H63.5781C72.5966 54.7042 80.3962 61.6716 81.6761 70.6289L84.6452 86.7451Z" fill="#9999C2"/>
<path d="M81.6769 70.6289L84.6454 86.7453C85.0981 89.2033 83.2109 91.4698 80.7116 91.4698H52V54.7042H63.5781C72.5966 54.7042 80.397 61.6716 81.6769 70.6289Z" fill="#000066"/>
<path d="M0 51.2958C0 50.1912 0.895431 49.2958 2 49.2958H102C103.105 49.2958 104 50.1912 104 51.2958V53.3895C104 54.4941 103.105 55.3895 102 55.3895H2C0.895432 55.3895 0 54.4941 0 53.3895V51.2958Z" fill="#000066"/>
<path d="M24.375 37.1083C24.375 43.8114 18.8906 49.2958 12.1875 49.2958C5.48438 49.2958 0 43.8114 0 37.1083C0 30.4052 5.48438 24.9208 12.1875 24.9208C18.8906 24.9208 24.375 30.4052 24.375 37.1083Z" fill="#9999C2"/>
<path d="M104 31.0145C104 41.1303 95.6314 49.2958 85.5156 49.2958C75.3998 49.2958 67.2344 41.1303 67.2344 31.0145C67.2344 20.8987 75.3998 12.5302 85.5156 12.5302C95.6314 12.5302 104 20.8987 104 31.0145Z" fill="#9999C2"/>
<path d="M24.375 37.1083C24.375 43.8114 18.8906 49.2958 12.1875 49.2958V24.9208C18.8906 24.9208 24.375 30.4052 24.375 37.1083Z" fill="#000066"/>
<path d="M104 31.0145C104 41.1303 95.6314 49.2958 85.5156 49.2958V12.5302C95.6314 12.5302 104 20.8987 104 31.0145Z" fill="#000066"/>
</svg>
