<svg width="67" height="73" viewBox="0 0 67 73" fill="none" xmlns="http://www.w3.org/2000/svg">
<path d="M49.1646 23.7399C54.3555 23.7399 58.5635 19.7542 58.5635 14.8375C58.5635 9.92081 54.3555 5.93506 49.1646 5.93506C43.9737 5.93506 39.7656 9.92081 39.7656 14.8375C39.7656 19.7542 43.9737 23.7399 49.1646 23.7399Z" fill="#9999C2"/>
<path d="M58.5645 29.6748H39.7666C38.9015 29.6748 38.2002 29.0106 38.2002 28.191V25.2236C38.2002 24.4042 38.9015 23.7397 39.7666 23.7397H58.5645C59.4296 23.7397 60.1311 24.404 60.1311 25.2236V28.191C60.1311 29.0106 59.4296 29.6748 58.5645 29.6748Z" fill="#9999C2"/>
<path d="M61.6968 59.3494H36.633C35.7679 59.3494 35.0664 58.6851 35.0664 57.8657V54.8982C35.0664 54.0788 35.7677 53.4146 36.633 53.4146H61.6968C62.5619 53.4146 63.2633 54.0788 63.2633 54.8982V57.8657C63.2634 58.6851 62.5619 59.3494 61.6968 59.3494Z" fill="#9999C2"/>
<path d="M64.83 72.9999H33.5002C32.6351 72.9999 31.9336 72.3356 31.9336 71.5162V66.7682C31.9336 65.9488 32.6349 65.2844 33.5002 65.2844H64.83C65.6951 65.2844 66.3964 65.9487 66.3964 66.7682V71.5162C66.3966 72.3356 65.6951 72.9999 64.83 72.9999Z" fill="#9999C2"/>
<path d="M38.2002 59.3491H60.1311V65.2841H38.2002V59.3491Z" fill="#9999C2"/>
<path d="M56.9971 29.6746H41.3322L39.7656 53.4144H58.5635L56.9971 29.6746Z" fill="#9999C2"/>
<path d="M19.4009 17.8049C24.5918 17.8049 28.7999 13.8191 28.7999 8.90243C28.7999 3.98575 24.5918 0 19.4009 0C14.21 0 10.002 3.98575 10.002 8.90243C10.002 13.8191 14.21 17.8049 19.4009 17.8049Z" fill="#000066"/>
<path d="M28.8 23.7395H10.0021C9.13702 23.7395 8.43555 23.0752 8.43555 22.2558V19.2884C8.43555 18.469 9.13687 17.8047 10.0021 17.8047H28.8C29.6651 17.8047 30.3666 18.469 30.3666 19.2884V22.2558C30.3666 23.0752 29.6653 23.7395 28.8 23.7395Z" fill="#000066"/>
<path d="M33.4997 59.3494H5.30289C4.4378 59.3494 3.73633 58.6851 3.73633 57.8657V54.8982C3.73633 54.0788 4.43765 53.4146 5.30289 53.4146H33.4997C34.3648 53.4146 35.0662 54.0788 35.0662 54.8982V57.8657C35.0662 58.6851 34.3648 59.3494 33.4997 59.3494Z" fill="#000066"/>
<path d="M36.6329 72.9996H2.17008C1.30499 72.9996 0.603516 72.3354 0.603516 71.516V66.768C0.603516 65.9486 1.30484 65.2842 2.17008 65.2842H36.6329C37.498 65.2842 38.1993 65.9485 38.1993 66.768V71.516C38.1995 72.3354 37.498 72.9996 36.6329 72.9996Z" fill="#000066"/>
<path d="M6.87012 59.3494H31.934V65.2843H6.87012V59.3494Z" fill="#000066"/>
<path d="M27.2334 23.7395H11.5685L8.43555 53.4143H30.3664L27.2334 23.7395Z" fill="#000066"/>
</svg>
