<svg width="114" height="114" viewBox="0 0 114 114" fill="none" xmlns="http://www.w3.org/2000/svg">
<g filter="url(#filter0_b)">
<rect y="56.5686" width="80" height="80" rx="8" transform="rotate(-45 0 56.5686)" fill="#F2F7F2"/>
</g>
<path d="M57 93C76.8823 93 93 76.8823 93 57C93 37.1177 76.8823 21 57 21C37.1177 21 21 37.1177 21 57C21 76.8823 37.1177 93 57 93Z" fill="#9999C2"/>
<path d="M61.9498 61.9501C61.7248 62.1751 62.7328 61.6418 45.2098 70.3426C44.765 70.6245 44.1843 70.5602 43.8119 70.1879C43.4396 69.8155 43.3754 69.2348 43.6573 68.7901C52.3625 51.2581 51.8248 52.275 52.0498 52.05L61.9498 61.9501Z" fill="#F2F7F2"/>
<path d="M70.3423 45.2103C61.6371 62.7423 62.1748 61.7253 61.9498 61.9503L52.0498 52.0503C52.2748 51.8253 51.2668 52.3585 68.7898 43.6578C69.2345 43.3758 69.8153 43.4401 70.1876 43.8124C70.56 44.1848 70.6242 44.7655 70.3423 45.2103Z" fill="#000066"/>
<path d="M57 36.75C55.7574 36.75 54.75 35.7426 54.75 34.5V30C54.75 28.7574 55.7574 27.75 57 27.75C58.2426 27.75 59.25 28.7574 59.25 30V34.5C59.25 35.7426 58.2426 36.75 57 36.75Z" fill="#000066"/>
<path d="M34.5 59.25H30C28.7574 59.25 27.75 58.2426 27.75 57C27.75 55.7574 28.7574 54.75 30 54.75H34.5C35.7426 54.75 36.75 55.7574 36.75 57C36.75 58.2426 35.7426 59.25 34.5 59.25Z" fill="#000066"/>
<path d="M57 86.25C55.7574 86.25 54.75 85.2426 54.75 84V79.5C54.75 78.2574 55.7574 77.25 57 77.25C58.2426 77.25 59.25 78.2574 59.25 79.5V84C59.25 85.2426 58.2426 86.25 57 86.25Z" fill="#000066"/>
<path d="M84 59.25H79.5C78.2574 59.25 77.25 58.2426 77.25 57C77.25 55.7574 78.2574 54.75 79.5 54.75H84C85.2426 54.75 86.25 55.7574 86.25 57C86.25 58.2426 85.2426 59.25 84 59.25Z" fill="#000066"/>
<path d="M57 86.25C40.8457 86.25 27.75 73.1543 27.75 57C27.75 40.8457 40.8457 27.75 57 27.75C73.1543 27.75 86.25 40.8457 86.25 57C86.2314 73.1466 73.1466 86.2314 57 86.25ZM57 32.25C43.331 32.25 32.25 43.331 32.25 57C32.25 70.669 43.331 81.75 57 81.75C70.669 81.75 81.75 70.669 81.75 57C81.7339 43.3376 70.6624 32.2661 57 32.25Z" fill="#000066"/>
<defs>
<filter id="filter0_b" x="-56" y="-56" width="225.137" height="225.137" filterUnits="userSpaceOnUse" color-interpolation-filters="sRGB">
<feFlood flood-opacity="0" result="BackgroundImageFix"/>
<feGaussianBlur in="BackgroundImage" stdDeviation="28"/>
<feComposite in2="SourceAlpha" operator="in" result="effect1_backgroundBlur"/>
<feBlend mode="normal" in="SourceGraphic" in2="effect1_backgroundBlur" result="shape"/>
</filter>
</defs>
</svg>
