<svg width="128" height="45" viewBox="0 0 128 45" fill="none" xmlns="http://www.w3.org/2000/svg">
<path d="M0 30.0334C0.862534 30.0334 1.72507 30.0334 2.61224 30.0334C2.85868 30.0334 2.85868 30.0334 2.93261 30.305C3.17905 31.0951 3.42549 31.9098 3.67193 32.6999C4.36196 34.9961 5.07663 37.2676 5.76665 39.5638C5.7913 39.6625 5.84059 39.7613 5.88987 39.9094C5.93916 39.786 5.98845 39.7119 6.01309 39.6379C6.72776 37.4404 7.46708 35.2677 8.18175 33.0703C8.50212 32.1321 8.82249 31.1691 9.11821 30.2309C9.1675 30.0581 9.24143 29.984 9.43858 29.984C10.2025 29.984 10.9665 29.984 11.7305 29.984C11.9276 29.984 12.0015 30.0581 12.0755 30.2556C12.4451 31.3667 12.8148 32.4777 13.1598 33.5888C13.8005 35.564 14.4659 37.5392 15.1067 39.5144C15.1313 39.6132 15.1806 39.7366 15.3038 39.8354C15.3531 39.7366 15.3777 39.6378 15.427 39.5391C15.7967 38.354 16.1417 37.1688 16.5114 35.959C17.0782 34.1073 17.645 32.2555 18.2118 30.4284C18.2611 30.305 18.2857 30.1815 18.335 30.0581C19.444 30.0581 20.5283 30.0581 21.6619 30.0581C21.6373 30.1815 21.6126 30.305 21.5633 30.4037C20.7747 32.6999 20.0108 34.9961 19.2222 37.2923C18.4336 39.6132 17.645 41.9587 16.8564 44.2796C16.6099 44.9956 16.7824 44.8475 16.0431 44.8475C15.4517 44.8475 14.8356 44.8475 14.2441 44.8475C13.8498 44.8475 13.8498 44.8475 13.702 44.4524C13.283 43.2673 12.8887 42.0822 12.4698 40.897C11.8537 39.1194 11.2376 37.317 10.6215 35.5393C10.5968 35.4899 10.5722 35.4158 10.5229 35.3171C10.4736 35.4158 10.4243 35.4899 10.3997 35.564C9.58645 37.9589 8.74856 40.3539 7.93531 42.7488C7.68887 43.4401 7.46708 44.1315 7.22064 44.8228C6.28417 44.8228 5.34771 44.8228 4.41124 44.8228C4.23874 44.329 4.06623 43.8599 3.89372 43.3661C2.85868 40.2798 1.799 37.1935 0.763958 34.1073C0.566808 33.5394 0.369657 32.9468 0.172506 32.3789C0.147862 32.2802 0.0492876 32.2061 0 32.132C0 31.416 0 30.7247 0 30.0334Z" fill="#F2F7F2"/>
<path d="M127.951 44.7242C126.99 44.7242 126.029 44.7242 125.067 44.7242C124.87 44.7242 124.747 44.6254 124.648 44.4773C123.909 43.4403 123.145 42.4033 122.406 41.391C121.765 40.5022 121.1 39.6133 120.459 38.7245C120.41 38.6751 120.36 38.601 120.311 38.527C120.237 38.601 120.139 38.6504 120.089 38.6998C119.621 39.1689 119.178 39.6627 118.709 40.1318C118.586 40.2553 118.611 40.3787 118.611 40.5269C118.611 41.7861 118.611 43.0699 118.611 44.3291C118.611 44.4526 118.611 44.576 118.611 44.6748C118.364 44.7489 115.777 44.7736 115.407 44.6995C115.407 39.8355 115.407 34.9716 115.407 30.1076C115.629 30.0336 118.019 30.0089 118.586 30.0829C118.611 30.7743 118.586 31.4656 118.586 32.1569C118.586 32.8729 118.586 33.5642 118.586 34.2803C118.586 34.9716 118.586 35.6629 118.586 36.4283C118.709 36.3048 118.783 36.2555 118.857 36.1814C120.632 34.2556 122.406 32.3544 124.18 30.4286C124.525 30.0582 124.525 30.0582 125.043 30.0582C126.029 30.0582 126.99 30.0582 127.975 30.0582C127.975 30.2311 127.975 30.4039 127.975 30.5767C127.606 30.9471 127.236 31.3174 126.891 31.6878C125.708 32.9223 124.525 34.1568 123.318 35.3913C123.047 35.6876 122.776 35.9592 122.504 36.2555C122.578 36.3542 122.628 36.453 122.702 36.5271C123.638 37.7863 124.55 39.0455 125.486 40.3046C126.324 41.4404 127.162 42.5515 128 43.6872C127.951 44.0329 127.951 44.3785 127.951 44.7242Z" fill="#F2F7F2"/>
<path d="M50.6431 30.0334C50.8156 30.0334 50.9141 30.0334 51.0127 30.0334C53.2307 30.0334 55.4733 30.0334 57.6912 30.0334C58.5044 30.0334 59.3177 30.1569 60.0817 30.5026C61.1167 30.9717 61.856 31.6877 62.1517 32.7987C62.546 34.3789 62.0778 35.9591 60.6731 36.8479C60.5992 36.8973 60.5499 36.9467 60.4513 37.0208C60.5992 37.0948 60.6977 37.1442 60.7963 37.1936C61.2153 37.3911 61.6096 37.6133 61.9546 37.9096C62.5214 38.3787 62.891 38.9713 63.0143 39.6873C63.1375 40.3045 63.1375 40.8971 63.0143 41.5144C62.7925 42.6007 62.201 43.3908 61.2399 43.9093C60.4513 44.3537 59.6134 44.5513 58.7262 44.6253C58.258 44.6747 57.7898 44.6747 57.3215 44.6994C55.2515 44.6994 53.1567 44.6994 51.0867 44.6994C50.9634 44.6994 50.8402 44.6994 50.6677 44.6994C50.6677 44.5513 50.6431 44.4278 50.6431 44.3044C50.6431 43.4155 50.6431 42.5513 50.6431 41.6625C50.6431 37.9343 50.6431 34.1814 50.6431 30.4532C50.6431 30.3544 50.6431 30.2063 50.6431 30.0334ZM53.8221 41.86C53.9453 41.86 54.0193 41.8847 54.1178 41.8847C55.35 41.8847 56.5576 41.8847 57.7898 41.8847C58.2087 41.8847 58.603 41.8106 58.9727 41.6625C59.2438 41.5637 59.4656 41.4156 59.6381 41.1934C60.1802 40.428 59.9091 39.3416 59.0959 38.9466C58.677 38.7491 58.2087 38.675 57.7651 38.675C56.5576 38.675 55.3747 38.675 54.1671 38.675C54.0686 38.675 53.97 38.675 53.8468 38.6997C53.8221 39.7367 53.8221 40.7984 53.8221 41.86ZM53.8221 35.9344C53.9207 35.9344 53.9946 35.9591 54.0686 35.9591C55.0543 35.9591 56.0154 35.9838 57.0012 35.9591C57.3215 35.9591 57.6666 35.9097 57.9869 35.8109C58.3812 35.7122 58.7262 35.5147 58.948 35.1443C59.3916 34.3789 59.0466 33.3666 58.2334 33.0456C57.8884 32.8975 57.5433 32.8481 57.1737 32.8481C56.1879 32.8481 55.1775 32.8481 54.1918 32.8481C54.0932 32.8481 53.9946 32.8728 53.8714 32.8728C53.8221 33.9098 53.8221 34.9221 53.8221 35.9344Z" fill="#F2F7F2"/>
<path d="M105.007 29.7865C106.856 29.7618 108.408 30.2557 109.813 31.2433C110.971 32.058 111.858 33.1444 112.351 34.4777C113.362 37.2183 113.017 39.786 111.218 42.1316C110.257 43.3661 109 44.1809 107.496 44.6253C105.747 45.1438 103.972 45.1438 102.272 44.5019C99.3886 43.3908 97.6882 41.3168 97.3432 38.2059C97.0721 35.7616 97.8607 33.6629 99.5858 31.9346C100.596 30.947 101.804 30.3297 103.184 29.9841C103.824 29.8359 104.465 29.7618 105.007 29.7865ZM104.687 32.7494C103.504 32.7987 102.272 33.3913 101.434 34.6999C100.744 35.7616 100.547 36.922 100.719 38.1565C100.99 40.1564 102.518 41.7119 104.515 41.9588C106.264 42.181 107.718 41.5637 108.729 40.0576C109.419 39.0207 109.616 37.8602 109.443 36.6504C109.148 34.3789 107.299 32.7494 104.687 32.7494Z" fill="#F2F7F2"/>
<path d="M79.8953 37.3666C79.92 34.8482 80.9304 32.8236 82.9265 31.2928C84.0108 30.4534 85.243 29.9843 86.6231 29.8361C88.1756 29.6633 89.7036 29.8114 91.1329 30.5028C93.6219 31.6879 95.1006 33.6631 95.4456 36.4284C95.692 38.5517 95.1745 40.4529 93.8437 42.1318C92.5376 43.7367 90.8372 44.6502 88.7917 44.9218C87.2145 45.1193 85.662 44.9465 84.208 44.2552C81.645 42.996 80.1911 40.9467 79.92 38.0826C79.92 38.0085 79.8953 37.9098 79.8953 37.8357C79.8953 37.6629 79.8953 37.5147 79.8953 37.3666ZM92.094 37.416C92.094 35.4902 91.1575 33.9594 89.5311 33.1693C87.5842 32.2311 85.243 32.873 84.0601 34.626C83.3701 35.663 83.1483 36.774 83.2962 38.0086C83.5426 40.1319 85.1445 41.7615 87.2392 41.959C88.8657 42.1071 90.2211 41.5639 91.2068 40.2307C91.8229 39.4159 92.094 38.453 92.094 37.416Z" fill="#F2F7F2"/>
<path d="M65.8483 30.0334C65.9715 30.0334 66.0948 30.0334 66.1933 30.0334C68.362 30.0334 70.5306 30.0334 72.6747 30.0334C73.7097 30.0334 74.6954 30.2063 75.6319 30.6754C77.012 31.3914 77.7759 32.5518 77.9731 34.0826C78.0717 34.8974 78.047 35.6875 77.8252 36.4776C77.5049 37.6627 76.7409 38.5022 75.6812 39.0947C75.4348 39.2429 75.1883 39.3416 74.8926 39.4898C76.0509 41.2428 77.2338 42.9217 78.4167 44.6994C78.2688 44.6994 78.1702 44.7241 78.047 44.7241C77.012 44.7241 76.0016 44.7241 74.9665 44.7241C74.7447 44.7241 74.5969 44.65 74.4737 44.4525C73.5618 43.0452 72.6254 41.6625 71.6889 40.2799C71.5657 40.0823 71.4178 40.0083 71.196 40.0083C70.5799 40.033 69.9638 40.0083 69.3231 40.0083C69.2245 40.0083 69.1259 40.0083 68.9534 40.033C68.9534 40.823 68.9534 41.5884 68.9534 42.3538C68.9534 43.1192 68.9534 43.8846 68.9534 44.6747C67.8691 44.6747 66.8341 44.6747 65.799 44.6747C65.7744 44.65 65.7744 44.65 65.7744 44.65L65.7497 44.6253C65.7497 44.5513 65.7251 44.4772 65.7251 44.4031C65.7251 39.6379 65.7251 34.8974 65.7251 30.1322C65.799 30.1322 65.8237 30.1075 65.8483 30.0334ZM69.0274 37.1442C69.1506 37.1442 69.2245 37.1689 69.3231 37.1689C70.3828 37.1689 71.4178 37.1689 72.4775 37.1689C72.7239 37.1689 72.995 37.1195 73.2415 37.0455C74.2026 36.7986 74.7447 36.1072 74.7694 35.1196C74.794 34.3048 74.5229 33.6382 73.759 33.2432C73.4386 33.0703 73.0936 32.9716 72.7486 32.9716C71.5657 32.9469 70.4074 32.9469 69.2245 32.9222C69.1752 32.9222 69.1013 32.9469 69.052 32.9716C69.0274 34.3789 69.0274 35.7369 69.0274 37.1442Z" fill="#F2F7F2"/>
<path d="M26.1471 29.9348C27.1575 29.9348 28.1433 29.9348 29.1537 29.9348C31.2484 34.8482 33.3185 39.7615 35.4378 44.6995C35.29 44.6995 35.1914 44.7242 35.0928 44.7242C34.181 44.7242 33.2938 44.7242 32.382 44.7242C32.0616 44.7242 32.0616 44.7242 31.9384 44.4279C31.5687 43.5144 31.1991 42.6255 30.8541 41.712C30.7801 41.4898 30.6569 41.4157 30.4351 41.4157C28.5622 41.4157 26.7139 41.4157 24.841 41.4157C24.6192 41.4157 24.496 41.4898 24.422 41.712C24.0524 42.6255 23.6827 43.5144 23.3131 44.4279C23.1898 44.7242 23.1898 44.7242 22.8695 44.7242C21.9823 44.7242 21.1198 44.7242 20.2326 44.7242C20.134 44.7242 20.0354 44.7242 19.8876 44.6995C21.9577 39.7615 24.0524 34.8482 26.1471 29.9348ZM27.6504 33.9346C27.6257 33.9346 27.6011 33.9346 27.5518 33.9346C27.33 34.4531 27.1329 34.9469 26.9111 35.4654C26.6893 35.9839 26.4921 36.5024 26.2703 37.0209C26.0732 37.5394 25.8267 38.0332 25.6542 38.5764C25.7774 38.5764 25.876 38.6011 25.95 38.6011C27.1082 38.6011 28.2665 38.5764 29.4247 38.5764C29.4247 38.5764 29.4494 38.5764 29.4494 38.5517C29.4494 38.5517 29.4494 38.527 29.474 38.5023C28.8826 36.9715 28.2665 35.4654 27.6504 33.9346Z" fill="#F2F7F2"/>
<path d="M48.2033 41.7862C48.2033 42.7738 48.2033 43.712 48.2033 44.6997C48.0801 44.6997 47.9323 44.7243 47.809 44.7243C45.4432 44.7243 43.0774 44.7243 40.7116 44.7243C39.8244 44.7243 38.9619 44.7243 38.0747 44.7243C37.9515 44.7243 37.8529 44.7243 37.7051 44.6997C37.7051 39.811 37.7051 34.947 37.7051 30.0831C37.9515 30.009 40.4159 29.9843 40.8841 30.0584C40.9088 31.0213 40.8841 31.9842 40.8841 32.9718C40.8841 33.9594 40.8841 34.9224 40.8841 35.91C40.8841 36.8976 40.8841 37.8605 40.8841 38.8481C40.8841 39.811 40.8841 40.7986 40.8841 41.8109C43.3485 41.7862 45.7636 41.7862 48.2033 41.7862Z" fill="#F2F7F2"/>
<path d="M97.9802 2.35243C97.6406 2.6914 97.9877 2.34496 97.9123 2.42023C94.6935 5.6316 93.4818 6.82156 90.2631 10.0329C86.5415 13.7461 82.8198 17.4592 79.0981 21.1724C78.4695 21.7996 77.8408 22.4268 77.2122 23.054C75.9046 24.3586 73.9683 24.3837 72.6355 23.0791C71.177 21.6239 69.7186 20.1688 68.2601 18.7136C67.4051 17.8606 66.525 17.0327 65.6952 16.1546C64.7144 15.1009 62.8536 14.9252 61.6466 16.1295C60.5653 17.2083 59.5091 18.262 58.4279 19.3409C57.1705 20.5953 55.9384 21.8497 54.6811 23.0791C53.3483 24.3837 51.4372 24.3586 50.1044 23.054C47.5898 20.5451 45.0752 18.0363 42.5605 15.5274C40.6745 13.6457 40.6745 10.4594 42.5354 8.57777C45.0752 6.0438 47.6401 3.48475 50.1799 0.950775C51.3617 -0.228399 53.3734 -0.25349 54.5553 0.925685C56.6425 3.00806 58.7548 5.11552 60.8419 7.19789C61.1688 7.52404 61.4706 7.85019 61.8226 8.15126C62.9542 9.10463 64.5636 9.05446 65.6197 8.00073C67.6063 6.01871 69.5677 4.06179 71.5542 2.07977C71.9314 1.70344 72.3086 1.35219 72.6607 0.975858C73.918 -0.253494 75.8794 -0.253493 77.1367 1.00095C79.4753 3.33421 81.814 5.66746 84.1526 8.00073C85.259 9.10463 87.0192 9.10464 88.1508 7.97564C89.5087 6.62085 90.8666 5.26605 92.1994 3.93634C93.4316 2.70699 94.1205 2.01995 95.3526 0.790601C95.445 0.698447 95.5355 0.589931 95.7393 0.386547C96.2146 -0.0880441 97.0974 -0.168105 97.7764 0.386555C98.5234 0.996662 98.3197 2.01347 97.9802 2.35243Z" fill="#F2F7F2"/>
</svg>
