<svg width="112" height="40" viewBox="0 0 112 40" fill="none" xmlns="http://www.w3.org/2000/svg">
<path d="M0 26.2299C0.754717 26.2299 1.50943 26.2299 2.28571 26.2299C2.50135 26.2299 2.50135 26.2299 2.56604 26.4671C2.78167 27.1571 2.9973 27.8687 3.21294 28.5587C3.81671 30.5641 4.44205 32.548 5.04582 34.5533C5.06739 34.6396 5.11051 34.7258 5.15364 34.8552C5.19677 34.7474 5.23989 34.6827 5.26146 34.618C5.88679 32.6989 6.53369 30.8013 7.15903 28.8822C7.43935 28.0628 7.71968 27.2218 7.97844 26.4024C8.02156 26.2515 8.08625 26.1868 8.25876 26.1868C8.92722 26.1868 9.59569 26.1868 10.2642 26.1868C10.4367 26.1868 10.5013 26.2515 10.566 26.424C10.8895 27.3943 11.2129 28.3647 11.5148 29.335C12.0755 31.0601 12.6577 32.7852 13.2183 34.5102C13.2399 34.5965 13.283 34.7043 13.3908 34.7905C13.434 34.7043 13.4555 34.618 13.4987 34.5318C13.8221 33.4967 14.124 32.4617 14.4474 31.4051C14.9434 29.7878 15.4394 28.1706 15.9353 26.5749C15.9784 26.4671 16 26.3593 16.0431 26.2515C17.0135 26.2515 17.9623 26.2515 18.9542 26.2515C18.9326 26.3593 18.9111 26.4671 18.8679 26.5533C18.1779 28.5587 17.5094 30.5641 16.8194 32.5695C16.1294 34.5965 15.4394 36.645 14.7493 38.6719C14.5337 39.2973 14.6846 39.1679 14.0377 39.1679C13.5202 39.1679 12.9811 39.1679 12.4636 39.1679C12.1186 39.1679 12.1186 39.1679 11.9892 38.8229C11.6226 37.7878 11.2776 36.7528 10.9111 35.7178C10.372 34.1652 9.83288 32.5911 9.2938 31.0385C9.27224 30.9954 9.25067 30.9307 9.20755 30.8445C9.16442 30.9307 9.12129 30.9954 9.09973 31.0601C8.38814 33.1517 7.65499 35.2434 6.9434 37.335C6.72776 37.9388 6.53369 38.5426 6.31806 39.1463C5.49865 39.1463 4.67924 39.1463 3.85984 39.1463C3.70889 38.7151 3.55795 38.3054 3.40701 37.8741C2.50135 35.1787 1.57412 32.4833 0.668463 29.7878C0.495957 29.2919 0.323449 28.7744 0.150943 28.2784C0.129379 28.1922 0.0431267 28.1275 0 28.0628C0 27.4374 0 26.8337 0 26.2299Z" fill="#000066"/>
<path d="M111.957 39.0603C111.116 39.0603 110.275 39.0603 109.434 39.0603C109.261 39.0603 109.154 38.974 109.067 38.8446C108.42 37.939 107.752 37.0333 107.105 36.1492C106.544 35.3729 105.962 34.5966 105.402 33.8204C105.358 33.7772 105.315 33.7125 105.272 33.6479C105.208 33.7125 105.121 33.7557 105.078 33.7988C104.668 34.2085 104.28 34.6398 103.871 35.0495C103.763 35.1573 103.784 35.2651 103.784 35.3945C103.784 36.4942 103.784 37.6155 103.784 38.7152C103.784 38.8231 103.784 38.9309 103.784 39.0171C103.569 39.0818 101.305 39.1034 100.981 39.0387C100.981 34.7907 100.981 30.5427 100.981 26.2948C101.175 26.2301 103.267 26.2085 103.763 26.2732C103.784 26.877 103.763 27.4807 103.763 28.0845C103.763 28.7098 103.763 29.3136 103.763 29.939C103.763 30.5427 103.763 31.1465 103.763 31.815C103.871 31.7072 103.935 31.664 104 31.5993C105.553 29.9174 107.105 28.257 108.658 26.5751C108.96 26.2516 108.96 26.2516 109.412 26.2516C110.275 26.2516 111.116 26.2516 111.978 26.2516C111.978 26.4026 111.978 26.5535 111.978 26.7045C111.655 27.0279 111.332 27.3514 111.03 27.6748C109.995 28.753 108.96 29.8311 107.903 30.9093C107.666 31.1681 107.429 31.4053 107.191 31.664C107.256 31.7503 107.299 31.8365 107.364 31.9012C108.183 33.001 108.981 34.1007 109.801 35.2004C110.534 36.1923 111.267 37.1627 112 38.1546C111.957 38.4565 111.957 38.7584 111.957 39.0603Z" fill="#000066"/>
<path d="M44.3127 26.23C44.4636 26.23 44.5499 26.23 44.6361 26.23C46.5768 26.23 48.5391 26.23 50.4798 26.23C51.1914 26.23 51.903 26.3378 52.5714 26.6397C53.4771 27.0494 54.124 27.6747 54.3828 28.6451C54.7278 30.0251 54.3181 31.4052 53.089 32.1815C53.0243 32.2246 52.9812 32.2677 52.8949 32.3324C53.0243 32.3971 53.1105 32.4402 53.1968 32.4834C53.5634 32.6559 53.9084 32.8499 54.2103 33.1087C54.7062 33.5184 55.0297 34.0359 55.1375 34.6613C55.2453 35.2003 55.2453 35.7179 55.1375 36.2569C54.9434 37.2057 54.4259 37.8958 53.5849 38.3486C52.8949 38.7367 52.1617 38.9092 51.3855 38.9739C50.9758 39.017 50.5661 39.017 50.1564 39.0386C48.345 39.0386 46.5121 39.0386 44.7008 39.0386C44.593 39.0386 44.4852 39.0386 44.3342 39.0386C44.3342 38.9092 44.3127 38.8014 44.3127 38.6936C44.3127 37.9173 44.3127 37.1626 44.3127 36.3863C44.3127 33.1303 44.3127 29.8526 44.3127 26.5966C44.3127 26.5103 44.3127 26.3809 44.3127 26.23ZM47.0944 36.5588C47.2022 36.5588 47.2669 36.5804 47.3531 36.5804C48.4313 36.5804 49.4879 36.5804 50.5661 36.5804C50.9326 36.5804 51.2776 36.5157 51.6011 36.3863C51.8383 36.3001 52.0324 36.1707 52.1833 35.9766C52.6577 35.3082 52.4205 34.3594 51.7089 34.0143C51.3423 33.8418 50.9326 33.7772 50.5445 33.7772C49.4879 33.7772 48.4528 33.7772 47.3962 33.7772C47.31 33.7772 47.2237 33.7772 47.1159 33.7987C47.0944 34.7044 47.0944 35.6316 47.0944 36.5588ZM47.0944 31.3836C47.1806 31.3836 47.2453 31.4052 47.31 31.4052C48.1725 31.4052 49.0135 31.4267 49.876 31.4052C50.1564 31.4052 50.4582 31.3621 50.7386 31.2758C51.0836 31.1896 51.3855 31.017 51.5795 30.6936C51.9677 30.0251 51.6658 29.141 50.9542 28.8607C50.6523 28.7313 50.3504 28.6882 50.027 28.6882C49.1644 28.6882 48.2803 28.6882 47.4178 28.6882C47.3315 28.6882 47.2453 28.7098 47.1375 28.7098C47.0944 29.6154 47.0944 30.4995 47.0944 31.3836Z" fill="#000066"/>
<path d="M91.8815 26.0143C93.4987 25.9928 94.8572 26.424 96.0863 27.2866C97.0998 27.9982 97.8761 28.947 98.3073 30.1114C99.1914 32.5049 98.8895 34.7475 97.3154 36.796C96.4745 37.8742 95.3747 38.5858 94.0594 38.9739C92.5284 39.4267 90.9758 39.4267 89.4879 38.8661C86.965 37.8957 85.4771 36.0844 85.1753 33.3674C84.9381 31.2327 85.6281 29.3998 87.1375 27.8904C88.0216 27.0278 89.0782 26.4887 90.2858 26.1869C90.8464 26.0575 91.4071 25.9928 91.8815 26.0143ZM91.6011 28.6019C90.5661 28.6451 89.4879 29.1626 88.7548 30.3055C88.151 31.2327 87.9785 32.2462 88.1294 33.3243C88.3666 35.0709 89.7036 36.4294 91.4502 36.6451C92.9812 36.8391 94.2534 36.3001 95.1375 34.9847C95.7413 34.079 95.9138 33.0656 95.7629 32.009C95.5041 30.0251 93.8868 28.6019 91.6011 28.6019Z" fill="#000066"/>
<path d="M69.9084 32.6344C69.9299 30.435 70.814 28.6668 72.5607 27.3299C73.5095 26.5967 74.5876 26.187 75.7952 26.0576C77.1537 25.9067 78.4906 26.0361 79.7413 26.6398C81.9192 27.6749 83.213 29.3999 83.5149 31.815C83.7305 33.6695 83.2777 35.3299 82.1132 36.7962C80.9704 38.1978 79.4825 38.9956 77.6928 39.2328C76.3127 39.4053 74.9542 39.2544 73.682 38.6506C71.4394 37.5509 70.1671 35.7611 69.93 33.2598C69.93 33.1951 69.9084 33.1088 69.9084 33.0441C69.9084 32.8932 69.9084 32.7638 69.9084 32.6344ZM80.5822 32.6776C80.5822 30.9956 79.7628 29.6587 78.3397 28.9687C76.6362 28.1493 74.5876 28.7099 73.5526 30.2409C72.9488 31.1466 72.7547 32.1169 72.8841 33.1951C73.0998 35.0495 74.5014 36.4727 76.3343 36.6452C77.7574 36.7746 78.9434 36.3002 79.806 35.1358C80.345 34.4242 80.5822 33.5832 80.5822 32.6776Z" fill="#000066"/>
<path d="M57.6173 26.23C57.7251 26.23 57.8329 26.23 57.9192 26.23C59.8167 26.23 61.7143 26.23 63.5903 26.23C64.496 26.23 65.3585 26.3809 66.1779 26.7906C67.3855 27.416 68.0539 28.4294 68.2264 29.7664C68.3127 30.478 68.2911 31.168 68.0971 31.858C67.8167 32.8931 67.1483 33.6262 66.221 34.1437C66.0054 34.2731 65.7898 34.3594 65.531 34.4887C66.5445 36.0197 67.5795 37.4861 68.6146 39.0386C68.4852 39.0386 68.3989 39.0602 68.2911 39.0602C67.3855 39.0602 66.5014 39.0602 65.5957 39.0602C65.4016 39.0602 65.2723 38.9955 65.1644 38.823C64.3666 37.5939 63.5472 36.3863 62.7278 35.1788C62.62 35.0063 62.4906 34.9416 62.2965 34.9416C61.7574 34.9631 61.2184 34.9416 60.6577 34.9416C60.5715 34.9416 60.4852 34.9416 60.3343 34.9631C60.3343 35.6532 60.3343 36.3216 60.3343 36.9901C60.3343 37.6586 60.3343 38.327 60.3343 39.017C59.3855 39.017 58.4798 39.017 57.5741 39.017C57.5526 38.9955 57.5526 38.9955 57.5526 38.9955L57.531 38.9739C57.531 38.9092 57.5095 38.8445 57.5095 38.7798C57.5095 34.6181 57.5095 30.478 57.5095 26.3162C57.5742 26.3162 57.5957 26.2947 57.6173 26.23ZM60.3989 32.4402C60.5068 32.4402 60.5715 32.4618 60.6577 32.4618C61.5849 32.4618 62.4906 32.4618 63.4178 32.4618C63.6334 32.4618 63.8706 32.4187 64.0863 32.354C64.9273 32.1383 65.4016 31.5346 65.4232 30.672C65.4448 29.9604 65.2076 29.3782 64.5391 29.0332C64.2588 28.8823 63.9569 28.796 63.655 28.796C62.62 28.7745 61.6065 28.7745 60.5715 28.7529C60.5283 28.7529 60.4636 28.7745 60.4205 28.796C60.3989 30.0251 60.3989 31.2111 60.3989 32.4402Z" fill="#000066"/>
<path d="M22.8787 26.1438C23.7628 26.1438 24.6253 26.1438 25.5094 26.1438C27.3423 30.4349 29.1536 34.726 31.0081 39.0387C30.8787 39.0387 30.7924 39.0602 30.7062 39.0602C29.9084 39.0602 29.1321 39.0602 28.3342 39.0602C28.0539 39.0602 28.0539 39.0602 27.9461 38.8015C27.6226 38.0036 27.2992 37.2274 26.9973 36.4295C26.9326 36.2354 26.8248 36.1708 26.6307 36.1708C24.9919 36.1708 23.3747 36.1708 21.7358 36.1708C21.5418 36.1708 21.434 36.2354 21.3693 36.4295C21.0458 37.2274 20.7224 38.0036 20.3989 38.8015C20.2911 39.0602 20.2911 39.0602 20.0108 39.0602C19.2345 39.0602 18.4798 39.0602 17.7035 39.0602C17.6172 39.0602 17.531 39.0602 17.4016 39.0387C19.2129 34.726 21.0458 30.4349 22.8787 26.1438ZM24.1941 29.6371C24.1725 29.6371 24.1509 29.6371 24.1078 29.6371C23.9137 30.0899 23.7412 30.5212 23.5472 30.974C23.3531 31.4268 23.1806 31.8797 22.9865 32.3325C22.814 32.7853 22.5984 33.2166 22.4474 33.691C22.5553 33.691 22.6415 33.7125 22.7062 33.7125C23.7197 33.7125 24.7331 33.691 25.7466 33.691C25.7466 33.691 25.7682 33.691 25.7682 33.6694C25.7682 33.6694 25.7682 33.6478 25.7898 33.6263C25.2722 32.2894 24.7332 30.974 24.1941 29.6371Z" fill="#000066"/>
<path d="M42.1779 36.4943C42.1779 37.3568 42.1779 38.1762 42.1779 39.0388C42.0701 39.0388 41.9407 39.0603 41.8329 39.0603C39.7628 39.0603 37.6928 39.0603 35.6227 39.0603C34.8464 39.0603 34.0917 39.0603 33.3154 39.0603C33.2076 39.0603 33.1213 39.0603 32.9919 39.0388C32.9919 34.7692 32.9919 30.5212 32.9919 26.2733C33.2076 26.2086 35.3639 26.187 35.7736 26.2517C35.7952 27.0927 35.7736 27.9337 35.7736 28.7962C35.7736 29.6587 35.7736 30.4997 35.7736 31.3622C35.7736 32.2248 35.7736 33.0657 35.7736 33.9283C35.7736 34.7692 35.7736 35.6318 35.7736 36.5159C37.93 36.4943 40.0432 36.4943 42.1779 36.4943Z" fill="#000066"/>
<path d="M85.7326 2.05452C85.4355 2.35056 85.7392 2.04799 85.6732 2.11373C82.8568 4.91841 81.7966 5.95766 78.9802 8.76234C75.7237 12.0052 72.4673 15.2481 69.2108 18.4911C68.6608 19.0388 68.1107 19.5866 67.5606 20.1344C66.4165 21.2738 64.7222 21.2957 63.5561 20.1563C62.2799 18.8855 61.0037 17.6146 59.7275 16.3437C58.9794 15.5987 58.2093 14.8757 57.4832 14.1088C56.6251 13.1885 54.9969 13.0351 53.9407 14.0868C52.9946 15.029 52.0705 15.9493 51.1244 16.8915C50.0242 17.9871 48.946 19.0827 47.8459 20.1563C46.6797 21.2957 45.0075 21.2738 43.8413 20.1344C41.641 17.9433 39.4407 15.7521 37.2404 13.561C35.5902 11.9176 35.5902 9.13484 37.2184 7.49147C39.4407 5.27841 41.685 3.04343 43.9074 0.830368C44.9415 -0.199474 46.7017 -0.221387 47.7359 0.808455C49.5621 2.62711 51.4104 4.46768 53.2366 6.28634C53.5227 6.57119 53.7867 6.85603 54.0948 7.11897C55.0849 7.95161 56.4931 7.90779 57.4172 6.9875C59.1555 5.25649 60.8717 3.5474 62.6099 1.81639C62.94 1.48771 63.27 1.18095 63.5781 0.852274C64.6782 -0.221391 66.3945 -0.22139 67.4946 0.874187C69.5409 2.91196 71.5872 4.94973 73.6335 6.9875C74.6016 7.95161 76.1418 7.95161 77.1319 6.96559C78.3201 5.78237 79.5083 4.59915 80.6744 3.43784C81.7526 2.36417 82.3554 1.76414 83.4335 0.690478C83.5144 0.609995 83.5936 0.515222 83.7718 0.337594C84.1878 -0.0768941 84.9602 -0.146816 85.5544 0.337601C86.208 0.870443 86.0297 1.75848 85.7326 2.05452Z" fill="#000066"/>
</svg>
