<svg width="22" height="23" viewBox="0 0 22 23" fill="none" xmlns="http://www.w3.org/2000/svg">
<path fill-rule="evenodd" clip-rule="evenodd" d="M10.1127 10.246L0.944072 10.2506C0.456181 10.2509 0.0605179 10.6513 0.0602708 11.1449C0.0600244 11.6386 0.455288 12.0386 0.943178 12.0384L10.1118 12.0338L10.1072 21.2025C10.1069 21.6904 10.5069 22.0856 11.0006 22.0854C11.4943 22.0851 11.8947 21.6895 11.8949 21.2016L11.8995 12.0329L21.0446 12.0283C21.5325 12.0281 21.9282 11.6277 21.9284 11.134C21.9287 10.6403 21.5334 10.2403 21.0455 10.2406L11.9004 10.2451L11.905 1.10013C11.9052 0.612281 11.5052 0.216974 11.0115 0.217221C10.5178 0.217468 10.1175 0.613174 10.1172 1.10102L10.1127 10.246Z" fill="#000066"/>
</svg>
